HIERARCHY
ROOT Hips
{
	OFFSET 0.000000 0.000000 0.000000
	CHANNELS 6 Xposition Yposition Zposition Yrotation Xrotation Zrotation
	JOINT Chest
	{
		OFFSET 0.000000 -0.009281 11.569106
		CHANNELS 3 Yrotation Xrotation Zrotation
		JOINT Chest2
		{
			OFFSET -0.000000 0.016865 9.269641
			CHANNELS 3 Yrotation Xrotation Zrotation
			JOINT Chest3
			{
				OFFSET -0.000000 0.000001 8.374491
				CHANNELS 3 Yrotation Xrotation Zrotation
				JOINT Chest4
				{
					OFFSET -0.000000 0.000001 8.374493
					CHANNELS 3 Yrotation Xrotation Zrotation
					JOINT Neck
					{
						OFFSET -0.000000 0.000002 12.152554
						CHANNELS 3 Yrotation Xrotation Zrotation
						JOINT Head
						{
							OFFSET -0.000000 0.040101 7.802319
							CHANNELS 3 Yrotation Xrotation Zrotation
							End Site
							{
								OFFSET -0.000000 0.020947 14.853096
							}
						}
					}
					JOINT RightCollar
					{
						OFFSET 2.894404 0.000001 6.791374
						CHANNELS 3 Yrotation Xrotation Zrotation
						JOINT RightShoulder
						{
							OFFSET 13.574684 0.000001 0.000000
							CHANNELS 3 Yrotation Xrotation Zrotation
							JOINT RightElbow
							{
								OFFSET 23.923903 0.000002 0.000000
								CHANNELS 3 Yrotation Xrotation Zrotation
								JOINT RightWrist
								{
									OFFSET 19.846718 0.012767 0.000000
									CHANNELS 3 Yrotation Xrotation Zrotation
									End Site
									{
										OFFSET 14.973145 0.000001 0.000000
									}
								}
							}
						}
					}
					JOINT LeftCollar
					{
						OFFSET -2.894404 0.000001 6.791374
						CHANNELS 3 Yrotation Xrotation Zrotation
						JOINT LeftShoulder
						{
							OFFSET -13.574684 -0.000001 0.000000
							CHANNELS 3 Yrotation Xrotation Zrotation
							JOINT LeftElbow
							{
								OFFSET -23.923903 -0.000002 0.000000
								CHANNELS 3 Yrotation Xrotation Zrotation
								JOINT LeftWrist
								{
									OFFSET -19.846718 0.012763 0.000000
									CHANNELS 3 Yrotation Xrotation Zrotation
									End Site
									{
										OFFSET -14.973145 -0.000001 0.000000
									}
								}
							}
						}
					}
				}
			}
		}
	}
	JOINT RightHip
	{
		OFFSET 9.469263 0.004643 0.045487
		CHANNELS 3 Yrotation Xrotation Zrotation
		JOINT RightKnee
		{
			OFFSET 0.000000 0.002661 -40.478676
			CHANNELS 3 Yrotation Xrotation Zrotation
			JOINT RightAnkle
			{
				OFFSET 0.000000 0.049106 -35.224068
				CHANNELS 3 Yrotation Xrotation Zrotation
				JOINT RightToe
				{
					OFFSET -0.000001 12.539529 -6.151390
					CHANNELS 3 Yrotation Xrotation Zrotation
					End Site
					{
						OFFSET -0.000001 5.044994 -1.291870
					}
				}
			}
		}
	}
	JOINT LeftHip
	{
		OFFSET -9.469263 0.004641 0.045487
		CHANNELS 3 Yrotation Xrotation Zrotation
		JOINT LeftKnee
		{
			OFFSET 0.000000 0.002661 -40.478676
			CHANNELS 3 Yrotation Xrotation Zrotation
			JOINT LeftAnkle
			{
				OFFSET 0.000000 0.049106 -35.224068
				CHANNELS 3 Yrotation Xrotation Zrotation
				JOINT LeftToe
				{
					OFFSET -0.000001 12.539529 -6.151390
					CHANNELS 3 Yrotation Xrotation Zrotation
					End Site
					{
						OFFSET -0.000001 5.044994 -1.291870
					}
				}
			}
		}
	}
}
MOTION
Frames: 6
Frame Time: 0.016667
44.083691 -3.526194 82.416428 -2.918051 3.589103 -95.948995 -3.116004 -2.549974 -0.038464 -1.379392 -1.122162 -0.013581 -1.379392 -1.122162 -0.013582 -1.034536 -0.841596 -0.012719 4.261682 -20.963676 -7.322396 5.589319 -2.679044 -12.041179 8.629551 -0.362927 -2.234436 47.833717 -18.323086 -5.539898 19.807530 -35.944099 38.997802 -25.605297 38.162463 68.057514 -7.756819 2.924999 -3.911030 -42.794024 -4.009218 12.922162 -35.094550 -55.782421 -21.191009 13.736535 11.240181 -54.851279 -0.444925 3.835578 -19.723980 6.552356 -15.043891 -14.201638 -1.638742 11.000639 15.487900 -0.929830 -0.479591 -0.068341 9.033447 0.796844 6.272385 -0.363004 -1.480410 3.862392 5.071828 -4.972621 4.621074 -3.788431 1.424423 0.168840 
44.122139 -3.421169 82.419106 -2.994002 3.544992 -95.910111 -3.052846 -2.506595 -0.025849 -1.355327 -1.104704 -0.004054 -1.355327 -1.104704 -0.004054 -1.016471 -0.828524 -0.005491 4.225439 -20.958589 -7.367361 5.510251 -2.672706 -12.133525 8.637107 -0.379558 -2.216029 47.783331 -18.379759 -5.578164 19.771103 -35.860699 39.060284 -25.572630 38.196323 68.075710 -7.766946 2.902893 -3.901714 -42.827359 -4.030081 12.920554 -35.183684 -55.726899 -21.028573 13.694803 11.259124 -54.784121 -0.615490 3.714978 -20.062424 6.589759 -15.186357 -14.244519 -0.820498 11.096929 15.954024 -1.221026 -0.551537 -0.058571 9.434118 -0.423158 6.601940 -0.273730 -1.733340 3.244492 5.050101 -4.486555 4.670635 -3.544578 1.770814 0.196433 
44.165955 -3.323257 82.422050 -3.052682 3.491854 -95.874901 -2.979192 -2.465607 -0.000239 -1.327559 -1.090494 0.008395 -1.327560 -1.090494 0.008395 -0.995624 -0.817893 0.003927 4.189428 -20.932522 -7.415390 5.429308 -2.627643 -12.231382 8.643017 -0.380353 -2.199093 47.702553 -18.471229 -5.600123 19.784478 -35.755620 39.109151 -25.543265 38.234924 68.087089 -7.779708 2.898160 -3.896557 -42.861087 -4.028172 12.922925 -35.297260 -55.680334 -20.866549 13.670088 11.254793 -54.681313 -0.766941 3.595985 -20.380453 6.623010 -15.297450 -14.291103 0.029514 11.146496 16.535410 -1.478196 -0.607424 -0.047033 9.748970 -1.520832 6.430803 -0.119623 -2.140711 2.928785 4.996140 -3.969191 4.708907 -3.297986 2.099761 0.226895 
44.209641 -3.232677 82.423363 -3.095935 3.433012 -95.834159 -2.905562 -2.426072 0.029994 -1.298802 -1.077633 0.020732 -1.298803 -1.077633 0.020731 -0.974037 -0.808273 0.013258 4.161725 -20.880938 -7.466116 5.360852 -2.534924 -12.331761 8.640332 -0.396184 -2.179642 47.625748 -18.563228 -5.604044 19.796504 -35.651484 39.156515 -25.520840 38.281913 68.103939 -7.785301 2.904398 -3.881123 -42.894759 -4.020884 12.920734 -35.393173 -55.664447 -20.739782 13.651024 11.262774 -54.558072 -0.857550 3.468607 -20.648253 6.631863 -15.316947 -14.336596 0.818498 11.184955 16.902299 -1.646105 -0.665008 -0.033369 9.980657 -2.529042 5.833035 0.045801 -2.633353 2.856793 4.914631 -3.476702 4.883458 -3.018092 2.405774 0.260668 
44.231331 -3.174017 82.421684 -3.114271 3.362685 -95.791183 -2.829636 -2.383843 0.067980 -1.272919 -1.065624 0.031337 -1.272919 -1.065623 0.031336 -0.954607 -0.799287 0.021283 4.150329 -20.802246 -7.521555 5.318641 -2.391062 -12.436000 8.635865 -0.401674 -2.167004 47.562586 -18.663857 -5.609634 19.785081 -35.551534 39.218670 -25.498392 38.318854 68.119321 -7.796585 2.934610 -3.875940 -42.931625 -4.029388 12.951340 -35.412936 -55.631922 -20.694672 13.624392 11.245820 -54.431403 -0.886761 3.350520 -20.816197 6.614345 -15.254041 -14.422009 1.504154 11.154912 17.405004 -1.706720 -0.693317 -0.007603 10.128219 -3.475701 5.001612 0.210689 -3.178739 2.911425 4.830644 -2.981182 5.060497 -2.709536 2.684830 0.298210 
44.239342 -3.111661 82.417328 -3.116811 3.311128 -95.746849 -2.778133 -2.344343 0.102869 -1.252106 -1.053127 0.041116 -1.252107 -1.053127 0.041116 -0.938982 -0.789933 0.028678 4.153879 -20.701624 -7.579936 5.301019 -2.205719 -12.541314 8.626126 -0.406980 -2.160151 47.519542 -18.747602 -5.610973 19.761209 -35.471618 39.283741 -25.483798 38.319718 68.122142 -7.813707 2.964183 -3.884070 -42.967907 -4.009965 13.011994 -35.391288 -55.593252 -20.681471 13.570669 11.195263 -54.336911 -0.888528 3.289178 -20.831508 6.625430 -15.176267 -14.530336 1.989577 11.154671 17.510127 -1.651844 -0.694950 0.004943 10.154601 -4.380239 4.074296 0.360720 -3.762027 2.972376 4.801500 -2.500719 5.166350 -2.399449 2.961093 0.342621 
